<svg width="62" height="72" viewBox="0 0 62 72" fill="none" xmlns="http://www.w3.org/2000/svg">
<path d="M52.6901 15.1455C58.3261 22.4044 61.1507 30.7357 61.1507 40.1134C61.1507 49.1379 58.248 56.7106 52.4558 62.8316C46.6635 68.9395 39.4915 72 30.9658 72C22.1798 72 14.8256 68.9657 8.89015 62.9101C2.96772 56.8283 0 49.321 0 40.388C0 31.8867 2.78549 24.7586 8.34346 19.0038C13.9144 13.249 21.0995 10.1101 29.9375 9.57384V0C39.4655 2.83815 47.054 7.88665 52.6901 15.1455Z" fill="#F4D6EC"/>
<path d="M36.3352 41.6669H25.6641" stroke="#AC3378" stroke-width="3" stroke-linecap="round" stroke-linejoin="round"/>
<path d="M29.6658 47.0029H25.6641" stroke="#AC3378" stroke-width="3" stroke-linecap="round" stroke-linejoin="round"/>
<path fill-rule="evenodd" clip-rule="evenodd" d="M38.9996 56.3391C38.9996 53.3923 41.3884 51.0035 44.3352 51.0035C41.3884 51.0035 38.9996 48.6147 38.9996 45.668C38.9996 48.6147 36.6108 51.0035 33.6641 51.0035C36.6108 51.0035 38.9996 53.3923 38.9996 56.3391Z" stroke="#AC3378" stroke-width="3" stroke-linecap="round" stroke-linejoin="round"/>
<path d="M24.9951 30.9961V34.9978" stroke="#AC3378" stroke-width="3" stroke-linecap="round" stroke-linejoin="round"/>
<path d="M37.0029 30.9961V34.9978" stroke="#AC3378" stroke-width="3" stroke-linecap="round" stroke-linejoin="round"/>
<path d="M30.9972 55.0053H22.9939C20.7838 55.0053 18.9922 53.2137 18.9922 51.0036V36.9978C18.9922 34.7877 20.7838 32.9961 22.9939 32.9961H39.0005C41.2106 32.9961 43.0022 34.7877 43.0022 36.9978V43.0003" stroke="#AC3378" stroke-width="3" stroke-linecap="round" stroke-linejoin="round"/>
</svg>
