<svg width="62" height="72" viewBox="0 0 62 72" fill="none" xmlns="http://www.w3.org/2000/svg">
<path d="M52.6901 15.1455C58.3261 22.4044 61.1507 30.7357 61.1507 40.1134C61.1507 49.1379 58.248 56.7106 52.4558 62.8316C46.6635 68.9395 39.4915 72 30.9658 72C22.1798 72 14.8256 68.9657 8.89015 62.9101C2.96772 56.8283 0 49.321 0 40.388C0 31.8867 2.78549 24.7586 8.34346 19.0038C13.9144 13.249 21.0995 10.1101 29.9375 9.57384V0C39.4655 2.83815 47.054 7.88665 52.6901 15.1455Z" fill="#F4D6EC"/>
<path d="M28.3359 43.0168C29.8093 41.2394 32.1959 41.2394 33.6693 43.0168" stroke="#AC3378" stroke-width="3" stroke-linecap="round" stroke-linejoin="round"/>
<path d="M26.7764 39.2281C28.8592 41.3109 28.8592 44.6878 26.7764 46.7706C24.6936 48.8534 21.3168 48.8534 19.234 46.7706C17.1512 44.6878 17.1512 41.3109 19.234 39.2281C21.3168 37.1453 24.6937 37.1453 26.7764 39.2281" stroke="#AC3378" stroke-width="3" stroke-linecap="round" stroke-linejoin="round"/>
<path d="M42.7764 39.2281C44.8592 41.3109 44.8592 44.6878 42.7764 46.7706C40.6936 48.8534 37.3168 48.8534 35.234 46.7706C33.1512 44.6878 33.1512 41.3109 35.234 39.2281C37.3168 37.1453 40.6937 37.1453 42.7764 39.2281" stroke="#AC3378" stroke-width="3" stroke-linecap="round" stroke-linejoin="round"/>
<path d="M17.6693 42.9987H16.3359" stroke="#AC3378" stroke-width="3" stroke-linecap="round" stroke-linejoin="round"/>
<path d="M45.6693 42.9987H44.3359" stroke="#AC3378" stroke-width="3" stroke-linecap="round" stroke-linejoin="round"/>
</svg>
