<svg width="120" height="42" viewBox="0 0 120 42" fill="none" xmlns="http://www.w3.org/2000/svg">
<g clip-path="url(#clip0_2319_15879)">
<path d="M39.3585 33.5342C39.345 34.5706 39.395 35.6066 39.508 36.637L39.3581 36.713C39.0832 36.2086 38.3327 34.8466 37.4818 33.5598L31.9035 25.1346H28.7516V41.7826H32.1804L32.155 33.7362C32.1876 32.734 32.1457 31.7308 32.0296 30.735L32.1804 30.659C32.581 31.3146 33.4311 32.753 34.0812 33.7618L39.4096 41.783H42.7837V25.135H39.3331L39.3577 33.535L39.3585 33.5342ZM49.3874 29.7514C49.3874 28.6158 50.3128 27.9102 51.813 27.9102C53.7392 27.9102 54.6147 29.2218 54.6896 30.1042L57.8669 29.323C57.4913 27.533 56.1406 24.959 51.7384 24.959C48.1863 24.959 45.8348 27.1554 45.8348 29.9534C45.8348 35.8306 54.4393 34.0654 54.4393 37.395C54.4393 38.429 53.5639 39.059 51.788 39.059C49.6361 39.059 47.8852 37.773 47.1089 37.0658L45.0328 39.639C46.9111 41.1772 49.2667 41.9989 51.6861 41.9598C55.8888 41.9598 57.9649 39.9162 57.9649 37.3186C57.9669 31.0626 49.3874 32.7778 49.3874 29.7506V29.7514ZM21.7734 41.7838H25.2506V25.1346H21.7734V41.7838ZM113.967 33.6606L119.67 25.1346H115.992L111.313 32.4002H109.787V25.1346H106.237V41.7826H109.79V35.2502H111.541L115.993 41.7834H119.72L113.967 33.6606ZM103.364 39.0838C101.287 39.0838 101.238 36.2838 99.4606 35.4518C101.563 34.6446 102.788 33.0802 102.788 30.7594C102.788 26.8494 100.489 25.1342 96.1841 25.1342H90.58V41.7822H94.1322V36.0818H94.8831C98.6105 36.0818 97.2345 41.9598 102.262 41.9598C102.876 41.9742 103.489 41.9148 104.089 41.783L103.863 39.033C103.698 39.0666 103.531 39.0837 103.363 39.0842L103.364 39.0838ZM95.7089 33.5602H94.1326V27.9602H95.9834C98.0854 27.9602 99.2861 28.9186 99.2861 30.7854C99.2861 32.5758 97.8351 33.5594 95.7089 33.5594V33.5602ZM79.0755 25.135L73.2219 41.783H76.8486L78.0001 38.2266H83.9779L85.1294 41.7834H88.732L82.9029 25.1354H79.0751L79.0755 25.135ZM78.8736 35.5274L80.4496 30.6086C80.6606 29.982 80.8279 29.3412 80.9501 28.691H81.0255C81.1564 29.331 81.323 29.963 81.5261 30.583L83.1271 35.5274H78.8736ZM66.5702 25.1354H60.64V41.7834H64.193V36.9398H67.0438C70.7713 36.9398 73.4984 34.9726 73.4984 31.037C73.4984 27.1014 70.8974 25.1346 66.5702 25.1346V25.1354ZM66.3683 34.1146H64.1926V27.9602H66.2211C68.6725 27.9602 69.8982 29.145 69.8982 31.037C69.897 33.0306 68.621 34.1146 66.3699 34.1146H66.3683Z" fill="black"/>
<path d="M7.27636 34.46C12.1395 23.75 22.404 15.676 34.899 13.182L34.9216 13.1652H22.4731L17.836 0L13.2006 13.1632H0.75L10.9082 20.8924L7.27636 34.46Z" fill="black"/>
<path d="M22.476 13.1734L17.8398 0.00976562L13.2031 13.1734" fill="black"/>
<path d="M10.9041 20.8984L7.27344 34.4608C9.09375 30.4839 11.6187 26.8754 14.724 23.8128L10.9041 20.8984Z" fill="black"/>
</g>
<defs>
<clipPath id="clip0_2319_15879">
<rect width="119" height="42" fill="white" transform="translate(0.75)"/>
</clipPath>
</defs>
</svg>
