<svg width="62" height="72" viewBox="0 0 62 72" fill="none" xmlns="http://www.w3.org/2000/svg">
<path d="M52.6901 15.1455C58.3261 22.4044 61.1507 30.7357 61.1507 40.1134C61.1507 49.1379 58.248 56.7106 52.4558 62.8316C46.6635 68.9395 39.4915 72 30.9658 72C22.1798 72 14.8256 68.9657 8.89015 62.9101C2.96772 56.8283 0 49.321 0 40.388C0 31.8867 2.78549 24.7586 8.34346 19.0038C13.9144 13.249 21.0995 10.1101 29.9375 9.57384V0C39.4655 2.83815 47.054 7.88665 52.6901 15.1455Z" fill="#F4D6EC"/>
<path d="M20.0859 48.0007H22.1086C22.5806 48.0007 23.0326 47.814 23.3659 47.4807V47.4807C23.6993 47.1473 23.8859 46.6953 23.8859 46.2233V39.1113C23.8859 38.6393 23.6993 38.1873 23.3659 37.854V37.854C23.0326 37.5207 22.5806 37.334 22.1086 37.334H20.4166" stroke="#AC3378" stroke-width="3" stroke-linecap="round" stroke-linejoin="round"/>
<path d="M41.5774 37.334H39.8867C39.4147 37.334 38.9627 37.5207 38.6294 37.854V37.854C38.296 38.1873 38.1094 38.6393 38.1094 39.1113V46.2233C38.1094 46.6953 38.296 47.1473 38.6294 47.4807V47.4807C38.9627 47.814 39.4147 48.0007 39.8867 48.0007H41.9094" stroke="#AC3378" stroke-width="3" stroke-linecap="round" stroke-linejoin="round"/>
<path d="M38.1348 46.5293H36.9881C36.6068 46.5293 36.2294 46.6106 35.8828 46.7693L30.2734 49.324" stroke="#AC3378" stroke-width="3" stroke-linecap="round" stroke-linejoin="round"/>
<path d="M29.1946 38.5572C28.5226 38.1666 27.7106 38.0692 26.9613 38.3386L23.8906 39.4439" stroke="#AC3378" stroke-width="3" stroke-linecap="round" stroke-linejoin="round"/>
<path d="M38.3253 38.2477L34.4906 36.5597C33.6693 36.1984 32.7199 36.2744 31.9666 36.7624L28.4866 39.017C27.3799 39.733 27.2533 41.3037 28.2293 42.189V42.189C28.8279 42.7317 29.6946 42.8624 30.4266 42.521L32.5013 41.553" stroke="#AC3378" stroke-width="3" stroke-linecap="round" stroke-linejoin="round"/>
<path fill-rule="evenodd" clip-rule="evenodd" d="M31 55C37.6274 55 43 49.6274 43 43C43 36.3726 37.6274 31 31 31C24.3726 31 19 36.3726 19 43C19 49.6274 24.3726 55 31 55Z" stroke="#AC3378" stroke-width="3" stroke-linecap="round" stroke-linejoin="round"/>
<path d="M32.5034 41.5527L33.5567 42.5087C34.7207 43.5634 34.7247 45.3901 33.5674 46.4514L30.878 48.9127C29.8634 49.8434 28.306 49.8461 27.2874 48.9221L25.4394 47.2461C25.002 46.8501 24.4447 46.6274 23.8594 46.5794" stroke="#AC3378" stroke-width="3" stroke-linecap="round" stroke-linejoin="round"/>
</svg>
