<svg width="62" height="72" viewBox="0 0 62 72" fill="none" xmlns="http://www.w3.org/2000/svg">
<path d="M52.6901 15.1455C58.3261 22.4044 61.1507 30.7357 61.1507 40.1134C61.1507 49.1379 58.248 56.7106 52.4558 62.8316C46.6635 68.9395 39.4915 72 30.9658 72C22.1798 72 14.8256 68.9657 8.89015 62.9101C2.96772 56.8283 0 49.321 0 40.388C0 31.8867 2.78549 24.7586 8.34346 19.0038C13.9144 13.249 21.0995 10.1101 29.9375 9.57384V0C39.4655 2.83815 47.054 7.88665 52.6901 15.1455Z" fill="#F4D6EC"/>
<path d="M26.0587 41.2734C26.0587 41.0561 25.8827 40.8814 25.6667 40.8814C25.4493 40.8828 25.2747 41.0588 25.2747 41.2748C25.2747 41.4921 25.4507 41.6668 25.6667 41.6668C25.8827 41.6668 26.0587 41.4908 26.0587 41.2734" stroke="#AC3378" stroke-width="3" stroke-linecap="round" stroke-linejoin="round"/>
<path d="M25.6641 40.8813V34.3333C25.6641 32.492 27.1561 31 28.9974 31V31C30.8387 31 32.3307 32.492 32.3307 34.3333V35.096" stroke="#AC3378" stroke-width="3" stroke-linecap="round" stroke-linejoin="round"/>
<path d="M28.5469 47.2437C29.6229 47.9877 30.9242 48.429 32.3309 48.429C33.2135 48.429 34.0509 48.249 34.8215 47.937L38.8335 51.9437C39.0842 52.193 39.4229 52.333 39.7749 52.333H41.6642C42.4002 52.333 42.9975 51.7357 42.9975 50.9997V49.117C42.9975 48.7624 42.8562 48.4237 42.6055 48.173L38.5469 44.1197C38.8269 43.385 38.9975 42.5957 38.9975 41.7624C38.9975 38.081 36.0122 35.0957 32.3309 35.0957C31.2855 35.0957 30.3095 35.357 29.4295 35.7864" stroke="#AC3378" stroke-width="3" stroke-linecap="round" stroke-linejoin="round"/>
<path fill-rule="evenodd" clip-rule="evenodd" d="M23.005 47.3568C22.2623 47.0328 21.561 46.5808 20.953 45.9728C18.349 43.3688 18.349 39.1488 20.953 36.5448C23.557 33.9408 27.777 33.9408 30.381 36.5448C32.985 39.1488 32.985 43.3688 30.381 45.9728C29.7757 46.5781 29.077 47.0275 28.3383 47.3515L28.3423 53.0008C28.3423 53.3555 28.2023 53.6941 27.9517 53.9448L26.621 55.2755C26.0997 55.7968 25.2557 55.7968 24.7357 55.2755L23.3997 53.9395C23.1503 53.6901 23.009 53.3515 23.009 52.9981L23.005 47.3568Z" stroke="#AC3378" stroke-width="3" stroke-linecap="round" stroke-linejoin="round"/>
</svg>
