<svg width="129" height="31" viewBox="0 0 129 31" fill="none" xmlns="http://www.w3.org/2000/svg">
<g clip-path="url(#clip0_2319_15908)">
<path d="M24.6523 9.07048C24.2792 9.36775 24.0928 9.76123 24.0928 10.2505C24.0928 10.7408 24.3205 11.1298 24.7767 11.4186C25.2323 11.7078 26.2844 12.049 27.9341 12.4421C29.5835 12.8362 30.864 13.4261 31.7758 14.2125C32.6871 14.9996 33.1428 16.1475 33.1428 17.6562C33.1428 19.1659 32.5587 20.3899 31.3899 21.3294C30.2217 22.2685 28.6839 22.7379 26.7782 22.7379C24.0265 22.7379 21.5483 21.7504 19.3438 19.7757L21.6563 17.0303C23.5288 18.62 25.2614 19.4144 26.8526 19.4144C27.5652 19.4144 28.1244 19.2664 28.531 18.9691C28.9369 18.6724 29.1401 18.2705 29.1401 17.765C29.1401 17.2595 28.9245 16.8579 28.4932 16.5608C28.0621 16.2641 27.2087 15.963 25.9325 15.6578C23.91 15.1922 22.431 14.5859 21.4945 13.8394C20.5577 13.0926 20.0899 11.9208 20.0899 10.3234C20.0899 8.72597 20.6822 7.49348 21.8672 6.62652C23.0522 5.75956 24.5314 5.32617 26.3056 5.32617C27.4657 5.32617 28.6259 5.51877 29.7864 5.90395C30.9465 6.28953 31.9578 6.8355 32.8196 7.54206L30.8559 10.2875C29.347 9.17979 27.7891 8.62572 26.1813 8.62572C25.535 8.62572 25.0248 8.77436 24.6523 9.07105V9.07048Z" fill="black"/>
<path d="M42.8678 9.37129C44.4261 9.37129 45.8143 10.0017 47.0326 11.2618C48.2508 12.5226 48.8599 14.1079 48.8599 16.0186C48.8599 17.9291 48.2508 19.5263 47.0326 20.8109C45.8143 22.0954 44.3883 22.7372 42.7564 22.7372C41.1233 22.7372 39.8097 22.1033 38.8154 20.835V27.217H35.0859V9.58779H38.8154V11.0329C39.9591 9.92516 41.3099 9.37109 42.868 9.37109L42.8678 9.37129ZM38.7653 16.0787C38.7653 17.1302 39.0676 17.9894 39.673 18.6555C40.2775 19.322 41.0115 19.6547 41.8733 19.6547C42.7354 19.6547 43.4896 19.322 44.1359 18.6555C44.7822 17.9894 45.1053 17.1342 45.1053 16.0907C45.1053 15.0469 44.7905 14.1723 44.1608 13.4657C43.5303 12.7591 42.7764 12.4056 41.8982 12.4056C41.0194 12.4056 40.2775 12.7551 39.6728 13.4532C39.0672 14.1518 38.7651 15.0271 38.7651 16.0787H38.7653Z" fill="black"/>
<path d="M62.2384 20.668C60.7297 22.049 58.9601 22.7391 56.9298 22.7391C54.8992 22.7391 53.2208 22.1334 51.8951 20.9208C50.5687 19.7087 49.9062 18.0835 49.9062 16.044C49.9062 14.0055 50.5811 12.3832 51.9323 11.1791C53.2831 9.97493 54.8789 9.37305 56.7189 9.37305C58.5583 9.37305 60.1206 9.91131 61.4056 10.9865C62.6895 12.0622 63.3324 13.5394 63.3324 15.4181V17.3444H53.5858C53.7015 18.0513 54.0834 18.6289 54.7297 19.0787C55.376 19.5281 56.1054 19.7525 56.9177 19.7525C58.2266 19.7525 59.3046 19.3274 60.1497 18.4762L62.2386 20.6678L62.2384 20.668ZM58.6578 12.9855C58.1439 12.5683 57.5181 12.3595 56.7806 12.3595C56.0431 12.3595 55.3677 12.5764 54.7546 13.0098C54.1414 13.4432 53.7851 14.0292 53.6853 14.7678H59.5535C59.4699 13.9972 59.1716 13.4033 58.6579 12.9855H58.6578Z" fill="black"/>
<path d="M72.0599 12.7686C70.9494 12.7686 70.1205 13.1503 69.5737 13.9126C69.0267 14.6753 68.7529 15.6826 68.7529 16.9351V22.5465H65.0234V9.58993H68.7529V11.2996C69.2336 10.7698 69.8345 10.3206 70.5556 9.95121C71.2764 9.58203 72.0104 9.38943 72.756 9.37305L72.781 12.7688H72.0597L72.0599 12.7686Z" fill="black"/>
<path d="M74.556 7.93884C74.1334 7.52936 73.9219 7.02793 73.9219 6.43337C73.9219 5.83959 74.1334 5.33776 74.556 4.92809C74.9785 4.51881 75.4965 4.31445 76.11 4.31445C76.7226 4.31445 77.241 4.519 77.6641 4.92809C78.0867 5.33776 78.2982 5.83959 78.2982 6.43337C78.2982 7.02793 78.0867 7.52936 77.6641 7.93884C77.241 8.34794 76.7226 8.55287 76.11 8.55287C75.4965 8.55287 74.9785 8.34794 74.556 7.93884ZM77.9745 22.5455H74.245V9.5889H77.9745V22.5455Z" fill="black"/>
<path d="M85.8699 22.7384C84.2868 22.7384 82.8741 22.0881 81.6308 20.7877C80.3876 19.4874 79.7656 17.8734 79.7656 15.9469C79.7656 14.02 80.3707 12.4426 81.5807 11.2143C82.7908 9.98648 84.2083 9.37226 85.8327 9.37226C87.4571 9.37226 88.7826 9.92613 89.8109 11.0341V4.67578H93.5403V22.5458H89.8109V20.8355C88.7664 22.1045 87.4525 22.7384 85.8699 22.7384ZM83.5202 16.0911C83.5202 17.1354 83.8433 17.9904 84.4902 18.6565C85.1365 19.3224 85.8903 19.6557 86.7528 19.6557C87.6142 19.6557 88.3477 19.3224 88.9533 18.6565C89.5583 17.9904 89.8604 17.131 89.8604 16.0793C89.8604 15.0282 89.5581 14.1528 88.9533 13.4541C88.3477 12.7557 87.6061 12.4065 86.7279 12.4065C85.8491 12.4065 85.0948 12.7601 84.4655 13.4661C83.8354 14.173 83.5204 15.0479 83.5204 16.0911H83.5202Z" fill="black"/>
<path d="M96.3839 7.93884C95.9615 7.52936 95.75 7.02793 95.75 6.43337C95.75 5.83959 95.9615 5.33776 96.3839 4.92809C96.8066 4.51881 97.3245 4.31445 97.9382 4.31445C98.5515 4.31445 99.0692 4.519 99.4922 4.92809C99.9146 5.33776 100.126 5.83959 100.126 6.43337C100.126 7.02793 99.9146 7.52936 99.4922 7.93884C99.0692 8.34794 98.5513 8.55287 97.9382 8.55287C97.3245 8.55287 96.8066 8.34794 96.3839 7.93884ZM99.8026 22.5455H96.0731V9.5889H99.8026V22.5455Z" fill="black"/>
<path d="M113.701 22.5464H110.196V20.9807C109.234 22.1529 108.045 22.7389 106.628 22.7389C105.21 22.7389 104.021 22.3414 103.06 21.5471C102.098 20.7523 101.617 19.6923 101.617 18.3681C101.617 17.0435 102.115 16.0521 103.109 15.3936C104.104 14.7356 105.463 14.4063 107.187 14.4063H109.972V14.3342C109.972 12.9531 109.217 12.2631 107.709 12.2631C107.062 12.2631 106.379 12.3875 105.658 12.6363C104.937 12.8852 104.328 13.1943 103.83 13.5635L102.165 11.2273C103.921 9.99112 105.927 9.37305 108.182 9.37305C109.806 9.37305 111.132 9.76652 112.16 10.5529C113.188 11.34 113.701 12.5845 113.701 14.2858V22.5465V22.5464ZM109.947 17.6093V16.9833H107.61C106.118 16.9833 105.372 17.4325 105.372 18.3315C105.372 18.7974 105.55 19.1545 105.907 19.4034C106.263 19.6526 106.772 19.7766 107.436 19.7766C108.099 19.7766 108.683 19.5801 109.188 19.1865C109.694 18.7936 109.947 18.2678 109.947 17.6091V17.6093Z" fill="black"/>
<path d="M119.847 15.3215V22.5464H116.117V9.58974H119.847V11.0349C120.974 9.92712 122.242 9.37305 123.65 9.37305C125.059 9.37305 126.24 9.85482 127.194 10.8182C128.147 11.7815 128.623 13.0661 128.623 14.6714V22.5465H124.894V15.2255C124.894 13.2349 124.139 12.239 122.631 12.239C121.886 12.239 121.235 12.5002 120.68 13.0215C120.124 13.5432 119.847 14.3101 119.847 15.3217L119.847 15.3215Z" fill="black"/>
<path d="M67.7103 26.4263V30.9381H66.7802V26.4263H65.1094V25.6016H69.3812V26.4263H67.7103Z" fill="black"/>
<path d="M74.2606 25.6016V26.4492H71.3207V27.8612H73.961V28.663H71.3207V30.0908H74.3553V30.9379H70.3906V25.6016H74.2606Z" fill="black"/>
<path d="M78.0567 30.1221C78.3773 30.1221 78.6528 30.0698 78.8844 29.9657C79.1152 29.8616 79.3573 29.6947 79.6091 29.4657L80.208 30.061C79.625 30.687 78.917 31 78.084 31C77.2513 31 76.5601 30.7409 76.0112 30.2216C75.4617 29.7026 75.1875 29.046 75.1875 28.2517C75.1875 27.4578 75.4673 26.7963 76.027 26.2669C76.5867 25.7377 77.2931 25.4727 78.1475 25.4727C79.0012 25.4727 79.7142 25.7784 80.2871 26.389L79.6957 27.0151C79.4333 26.7707 79.185 26.6003 78.9511 26.5037C78.7172 26.4069 78.4429 26.3585 78.1274 26.3585C77.5704 26.3585 77.1028 26.5334 76.7242 26.8817C76.3459 27.2303 76.1569 27.6756 76.1569 28.2177C76.1569 28.7599 76.3449 29.2131 76.7205 29.5765C77.0961 29.9409 77.5417 30.1225 78.0565 30.1225L78.0567 30.1221Z" fill="black"/>
<path d="M81.3438 30.9379V25.6016H82.2738V27.9144H85.0088V25.6016H85.9385V30.9379H85.0088V28.7542H82.2738V30.9379H81.3438Z" fill="black"/>
<path d="M91.5989 25.6016H92.529V30.9379H91.5198L88.3989 27.0446V30.9379H87.4688V25.6016H88.3989L91.5989 29.5868V25.6016Z" fill="black"/>
<path d="M98.6687 30.2023C98.1115 30.729 97.4235 30.9921 96.6033 30.9921C95.7843 30.9921 95.0956 30.729 94.5386 30.2023C93.9813 29.6754 93.7031 29.019 93.7031 28.2324C93.7031 27.4458 93.9813 26.7898 94.5386 26.2631C95.0956 25.7362 95.7843 25.4727 96.6033 25.4727C97.4235 25.4727 98.1115 25.7362 98.6687 26.2631C99.2257 26.7898 99.5041 27.4458 99.5041 28.2324C99.5041 29.019 99.2259 29.6756 98.6687 30.2023ZM97.9871 26.8619C97.6111 26.4857 97.1503 26.297 96.6033 26.297C96.0571 26.297 95.5961 26.4857 95.2207 26.8619C94.8446 27.239 94.6569 27.6957 94.6569 28.2324C94.6569 28.7695 94.8446 29.2262 95.2207 29.6029C95.5963 29.9796 96.0571 30.1678 96.6033 30.1678C97.1503 30.1678 97.6111 29.9796 97.9871 29.6029C98.3623 29.2262 98.5503 28.7695 98.5503 28.2324C98.5503 27.6957 98.3623 27.239 97.9871 26.8619Z" fill="black"/>
<path d="M100.68 30.9379V25.6016H101.61V30.0827H104.124V30.9379H100.68Z" fill="black"/>
<path d="M109.598 30.2023C109.041 30.729 108.353 30.9921 107.533 30.9921C106.713 30.9921 106.025 30.729 105.468 30.2023C104.911 29.6754 104.633 29.019 104.633 28.2324C104.633 27.4458 104.911 26.7898 105.468 26.2631C106.025 25.7362 106.713 25.4727 107.533 25.4727C108.353 25.4727 109.041 25.7362 109.598 26.2631C110.155 26.7898 110.434 27.4458 110.434 28.2324C110.434 29.019 110.155 29.6756 109.598 30.2023ZM108.916 26.8619C108.541 26.4857 108.08 26.297 107.533 26.297C106.986 26.297 106.525 26.4857 106.15 26.8619C105.774 27.239 105.586 27.6957 105.586 28.2324C105.586 28.7695 105.774 29.2262 106.15 29.6029C106.525 29.9796 106.986 30.1678 107.533 30.1678C108.08 30.1678 108.54 29.9796 108.916 29.6029C109.292 29.2262 109.48 28.7695 109.48 28.2324C109.48 27.6957 109.292 27.239 108.916 26.8619Z" fill="black"/>
<path d="M115.419 28.3431H116.35V30.1676C115.829 30.7224 115.086 31 114.119 31C113.304 31 112.623 30.7404 112.074 30.221C111.524 29.7022 111.25 29.0456 111.25 28.2517C111.25 27.4574 111.529 26.7959 112.089 26.2666C112.649 25.7374 113.325 25.4727 114.119 25.4727C114.912 25.4727 115.572 25.6963 116.097 26.1441L115.601 26.8314C115.385 26.6531 115.169 26.5297 114.95 26.4611C114.732 26.3922 114.478 26.3577 114.189 26.3577C113.633 26.3577 113.165 26.5326 112.787 26.8812C112.408 27.2297 112.219 27.6878 112.219 28.2551C112.219 28.8229 112.403 29.2779 112.771 29.6218C113.138 29.9654 113.584 30.1371 114.107 30.1371C114.63 30.1371 115.067 30.028 115.419 29.8088V28.3431H115.419Z" fill="black"/>
<path d="M117.57 25.6016H118.5V30.9381H117.57V25.6016Z" fill="black"/>
<path d="M123.901 25.6016V26.4492H120.961V27.8612H123.602V28.663H120.961V30.0908H123.996V30.9379H120.031V25.6016H123.901Z" fill="black"/>
<path d="M126.85 26.3051C126.58 26.3051 126.358 26.3585 126.184 26.4657C126.011 26.5723 125.924 26.7343 125.924 26.9506C125.924 27.1669 126.011 27.3323 126.184 27.4466C126.358 27.5611 126.727 27.6847 127.292 27.8169C127.857 27.9494 128.282 28.1348 128.569 28.3743C128.855 28.6137 128.998 28.9658 128.998 29.4313C128.998 29.8975 128.817 30.2752 128.455 30.5653C128.092 30.8556 127.616 31.0002 127.028 31.0002C126.166 31.0002 125.401 30.713 124.734 30.1377L125.317 29.4583C125.875 29.9262 126.452 30.1603 127.051 30.1603C127.351 30.1603 127.589 30.0982 127.765 29.9733C127.941 29.8489 128.029 29.6835 128.029 29.477C128.029 29.2711 127.946 29.1107 127.78 28.9962C127.615 28.8817 127.33 28.7774 126.925 28.6831C126.521 28.5889 126.213 28.5025 126.003 28.4235C125.793 28.345 125.606 28.2418 125.444 28.1144C125.117 27.8756 124.955 27.5087 124.955 27.0149C124.955 26.5212 125.14 26.141 125.51 25.8737C125.881 25.6065 126.339 25.4727 126.886 25.4727C127.238 25.4727 127.588 25.5289 127.934 25.641C128.281 25.753 128.58 25.9105 128.832 26.1141L128.336 26.794C128.173 26.6512 127.952 26.5341 127.674 26.4424C127.395 26.351 127.121 26.3051 126.85 26.3051H126.85Z" fill="black"/>
<path d="M6.35222 15.0625L0 22.5935H12.7046L6.35222 15.0625Z" fill="black"/>
<path d="M12.6571 7.53125L6.30469 15.0627H19.0093L12.6571 7.53125Z" fill="black"/>
<path d="M12.6571 22.5935L19.0093 15.0625H6.30469L12.6571 22.5935Z" fill="black"/>
<path d="M6.35222 0L0 7.53102H12.7046L6.35222 0Z" fill="black"/>
<path d="M6.35222 15.0625L12.7046 7.53125H0L6.35222 15.0625Z" fill="black"/>
<path d="M12.6571 7.53102L19.0093 0H6.30469L12.6571 7.53102Z" fill="black"/>
</g>
<defs>
<clipPath id="clip0_2319_15908">
<rect width="129" height="31" fill="white"/>
</clipPath>
</defs>
</svg>
