<svg width="126" height="27" viewBox="0 0 126 27" fill="none" xmlns="http://www.w3.org/2000/svg">
<path d="M3.20161 19.4738C4.30535 19.4738 5.2001 18.5729 5.2001 17.4615C5.2001 16.3501 4.30535 15.4492 3.20161 15.4492C2.09788 15.4492 1.20312 16.3501 1.20312 17.4615C1.20312 18.5729 2.09788 19.4738 3.20161 19.4738Z" fill="black"/>
<g opacity="0.9">
<path d="M9.67036 19.4738C10.7741 19.4738 11.6689 18.5729 11.6689 17.4615C11.6689 16.3501 10.7741 15.4492 9.67036 15.4492C8.56663 15.4492 7.67188 16.3501 7.67188 17.4615C7.67188 18.5729 8.56663 19.4738 9.67036 19.4738Z" fill="black"/>
</g>
<g opacity="0.7">
<path d="M16.1469 19.4738C17.2507 19.4738 18.1454 18.5729 18.1454 17.4615C18.1454 16.3501 17.2507 15.4492 16.1469 15.4492C15.0432 15.4492 14.1484 16.3501 14.1484 17.4615C14.1484 18.5729 15.0432 19.4738 16.1469 19.4738Z" fill="black"/>
</g>
<path d="M22.8688 1.58594H36.4776C36.89 1.58594 37.1437 1.84147 37.1437 2.22476V3.53434C37.1437 3.94957 36.89 4.2051 36.4776 4.2051H31.18V18.8022C31.18 19.2174 30.9262 19.4729 30.5456 19.4729H28.8326C28.4202 19.4729 28.1664 19.2174 28.1664 18.8022V4.2051H22.8688C22.4882 4.2051 22.2344 3.94957 22.2344 3.53434V2.22476C22.2344 1.84147 22.4882 1.58594 22.8688 1.58594Z" fill="black"/>
<path d="M36.9531 12.9562C36.9531 9.18719 39.6495 6.3125 43.2024 6.3125C45.0422 6.3125 46.6284 7.30267 47.58 8.77196V6.82356C47.58 6.63191 47.7386 6.47221 47.929 6.47221H49.7371C50.1495 6.47221 50.4033 6.72773 50.4033 7.11103V18.8014C50.4033 19.2167 50.1495 19.4722 49.7371 19.4722H47.929C47.7386 19.4722 47.58 19.3125 47.58 19.1209V17.1725C46.5966 18.6417 45.0105 19.6319 43.2024 19.6319C39.6495 19.6 36.9531 16.6933 36.9531 12.9562ZM43.6465 17.4599C45.4864 17.4599 47.58 15.9268 47.58 12.9882C47.58 10.4968 45.8987 8.51643 43.6465 8.51643C41.4894 8.51643 39.7447 10.5287 39.7447 12.9882C39.7447 15.4796 41.4894 17.4599 43.6465 17.4599Z" fill="black"/>
<path d="M59.6948 6.3457C61.503 6.3457 63.1208 7.33588 64.0725 8.80516V6.85676C64.0725 6.66511 64.2311 6.50541 64.4214 6.50541H66.2296C66.642 6.50541 66.8957 6.76094 66.8957 7.14423V23.7536C66.8957 24.1688 66.642 24.4243 66.2296 24.4243H64.7386C64.3263 24.4243 64.0725 24.1688 64.0725 23.7536V17.1737C63.1208 18.643 61.5347 19.6332 59.6948 19.6332C56.142 19.6332 53.4456 16.7265 53.4456 12.9894C53.4139 9.2204 56.1102 6.3457 59.6948 6.3457ZM56.2371 12.9575C56.2371 15.417 57.9818 17.4292 60.1389 17.4292C62.3912 17.4292 64.0725 15.4489 64.0725 12.9575C64.0725 10.0189 61.9788 8.48575 60.1389 8.48575C57.9818 8.48575 56.2371 10.4661 56.2371 12.9575Z" fill="black"/>
<path d="M71.2109 7.14297C71.2109 6.72773 71.4647 6.47221 71.8454 6.47221H73.717C73.8756 6.47221 74.0025 6.59997 74.0025 6.75967V8.22896C74.859 7.11103 76.2547 6.3125 77.936 6.3125C81.2985 6.3125 83.3288 8.86778 83.3288 11.9022V18.7695C83.3288 19.1847 83.075 19.4403 82.6943 19.4403H81.1717C80.791 19.4403 80.5372 19.1847 80.5372 18.7695V11.7744C80.5372 10.0177 79.2049 8.6442 77.4602 8.6442C75.1762 8.6442 74.0025 10.6565 74.0025 11.9341V18.8334C74.0025 19.2167 73.7487 19.4722 73.368 19.4722H71.8454C71.4647 19.4722 71.2109 19.2167 71.2109 18.8334V7.14297Z" fill="black"/>
<path d="M86.792 6.47266H88.4415C88.6953 6.47266 88.9173 6.63236 89.0442 6.88789L92.2799 15.2884L95.579 6.88789C95.7058 6.6643 95.9279 6.47266 96.1817 6.47266H97.7995C98.3705 6.47266 98.5926 6.82401 98.4022 7.367L93.0729 21.2294C92.2164 23.4972 90.091 24.9985 87.7436 25.1262C87.363 25.1582 87.1409 24.9026 87.1409 24.5193V23.082C87.1409 22.6987 87.3947 22.4432 87.7119 22.3154C88.8539 22.1557 89.869 21.3891 90.3131 20.2712L90.7572 19.1852L86.1892 7.367C85.9672 6.82401 86.221 6.47266 86.792 6.47266Z" fill="black"/>
<path d="M100.016 12.9562C100.016 9.18719 102.712 6.3125 106.265 6.3125C108.105 6.3125 109.691 7.30267 110.643 8.77196V6.82356C110.643 6.63191 110.801 6.47221 110.991 6.47221H112.8C113.212 6.47221 113.466 6.72773 113.466 7.11103V18.8014C113.466 19.2167 113.212 19.4722 112.8 19.4722H111.023C110.833 19.4722 110.674 19.3125 110.674 19.1209V17.1725C109.691 18.6417 108.105 19.6319 106.297 19.6319C102.712 19.6 100.016 16.6933 100.016 12.9562ZM106.741 17.4599C108.581 17.4599 110.674 15.9268 110.674 12.9882C110.674 10.4968 108.993 8.51643 106.741 8.51643C104.584 8.51643 102.839 10.5287 102.839 12.9882C102.839 15.4796 104.584 17.4599 106.741 17.4599Z" fill="black"/>
<path d="M116.958 6.47376H118.132V3.63101C118.132 3.24772 118.386 2.99219 118.798 2.99219H120.321C120.701 2.99219 120.955 3.24772 120.955 3.63101V6.47376H123.905C124.286 6.47376 124.54 6.72929 124.54 7.14452V7.97499C124.54 8.35828 124.286 8.61381 123.905 8.61381H120.955V14.491C120.955 16.0241 122.002 16.9185 123.334 16.9185C123.461 16.9185 123.62 16.8865 123.747 16.8865C123.937 16.8546 124.127 16.9824 124.191 17.174L124.571 18.6114C124.698 19.0266 124.476 19.346 124.127 19.3779C123.842 19.4418 123.525 19.4738 123.239 19.4738C120.162 19.4738 118.227 17.6212 118.195 14.5229V8.61381H117.022C116.736 8.61381 116.546 8.42216 116.546 8.10275V7.01676C116.451 6.66541 116.673 6.47376 116.958 6.47376Z" fill="black"/>
</svg>
