<svg width="62" height="72" viewBox="0 0 62 72" fill="none" xmlns="http://www.w3.org/2000/svg">
<path d="M52.6901 15.1455C58.3261 22.4044 61.1507 30.7357 61.1507 40.1134C61.1507 49.1379 58.248 56.7106 52.4558 62.8316C46.6635 68.9395 39.4915 72 30.9658 72C22.1798 72 14.8256 68.9657 8.89015 62.9101C2.96772 56.8283 0 49.321 0 40.388C0 31.8867 2.78549 24.7586 8.34346 19.0038C13.9144 13.249 21.0995 10.1101 29.9375 9.57384V0C39.4655 2.83815 47.054 7.88665 52.6901 15.1455Z" fill="#F4D6EC"/>
<path d="M30.9972 30.9961C37.6274 30.9961 43.0022 36.3709 43.0022 43.0011C43.0022 49.6313 37.6274 55.0061 30.9972 55.0061C24.367 55.0061 18.9922 49.6313 18.9922 43.0011C18.9922 36.3709 24.367 30.9961 30.9972 30.9961" stroke="#AC3378" stroke-width="3" stroke-linecap="round" stroke-linejoin="round"/>
<path d="M34.4009 48.0469L30.4219 55.0058" stroke="#AC3378" stroke-width="3" stroke-linecap="round" stroke-linejoin="round"/>
<path d="M20.8984 36.5176L24.9121 43.4004" stroke="#AC3378" stroke-width="3" stroke-linecap="round" stroke-linejoin="round"/>
<circle cx="26.2772" cy="45.7361" r="2.66778" stroke="#AC3378" stroke-width="3" stroke-linecap="round" stroke-linejoin="round"/>
<circle cx="35.7225" cy="45.7361" r="2.66778" stroke="#AC3378" stroke-width="3" stroke-linecap="round" stroke-linejoin="round"/>
<circle cx="30.9959" cy="37.5447" r="2.66778" stroke="#AC3378" stroke-width="3" stroke-linecap="round" stroke-linejoin="round"/>
<path d="M33.6641 37.5459H41.6941" stroke="#AC3378" stroke-width="3" stroke-linecap="round" stroke-linejoin="round"/>
</svg>
