<svg width="21" height="21" viewBox="0 0 21 21" fill="none" xmlns="http://www.w3.org/2000/svg">
<path d="M19.1855 0.105469H2.14258C1.32617 0.105469 0.666016 0.75 0.666016 1.54688V18.6602C0.666016 19.457 1.32617 20.1055 2.14258 20.1055H19.1855C20.002 20.1055 20.666 19.457 20.666 18.6641V1.54688C20.666 0.75 20.002 0.105469 19.1855 0.105469ZM6.59961 17.1484H3.63086V7.60156H6.59961V17.1484ZM5.11523 6.30078C4.16211 6.30078 3.39258 5.53125 3.39258 4.58203C3.39258 3.63281 4.16211 2.86328 5.11523 2.86328C6.06445 2.86328 6.83398 3.63281 6.83398 4.58203C6.83398 5.52734 6.06445 6.30078 5.11523 6.30078ZM17.709 17.1484H14.7441V12.5078C14.7441 11.4023 14.7246 9.97656 13.2012 9.97656C11.6582 9.97656 11.4238 11.1836 11.4238 12.4297V17.1484H8.46289V7.60156H11.3066V8.90625H11.3457C11.7402 8.15625 12.709 7.36328 14.1504 7.36328C17.1543 7.36328 17.709 9.33984 17.709 11.9102V17.1484Z" fill="#98A2B3"/>
</svg>
